<svg width="64" height="64" viewBox="0 0 64 64" fill="none" xmlns="http://www.w3.org/2000/svg">
<path d="M32 5.3335C28.4981 5.3335 25.0305 6.02325 21.7951 7.36338C18.5598 8.7035 15.6201 10.6678 13.1439 13.144C8.14289 18.145 5.33337 24.9277 5.33337 32.0002C5.33337 39.0726 8.14289 45.8554 13.1439 50.8563C15.6201 53.3326 18.5598 55.2968 21.7951 56.637C25.0305 57.9771 28.4981 58.6668 32 58.6668C39.0725 58.6668 45.8552 55.8573 50.8562 50.8563C55.8572 45.8554 58.6667 39.0726 58.6667 32.0002C58.6667 28.4982 57.977 25.0306 56.6368 21.7953C55.2967 18.5599 53.3324 15.6202 50.8562 13.144C48.38 10.6678 45.4403 8.7035 42.2049 7.36338C38.9696 6.02325 35.502 5.3335 32 5.3335ZM43.2 43.2002L29.3334 34.6668V18.6668H33.3334V32.5335L45.3334 39.7335L43.2 43.2002Z" fill="#00A0A8"/>
</svg>
