<svg width="44" height="44" viewBox="0 0 44 44" fill="none" xmlns="http://www.w3.org/2000/svg">
    <rect x="0.5" y="0.5" width="43" height="43" rx="21.5" stroke="white"/>
    <path d="M14.18 29L16.578 24.336L9.846 13.49H12.288L17.656 22.246L22.144 13.49H24.498L16.556 29H14.18ZM28.8397 29.198C27.9011 29.198 27.0137 29.088 26.1777 28.868C25.3417 28.6333 24.6597 28.296 24.1317 27.856L24.7697 26.36C25.2831 26.756 25.8917 27.0567 26.5957 27.262C27.3144 27.4527 28.0477 27.548 28.7957 27.548C29.7784 27.548 30.4897 27.416 30.9297 27.152C31.3697 26.888 31.5897 26.4847 31.5897 25.942C31.5897 24.9007 30.9151 24.38 29.5657 24.38H26.8817V22.752H29.3237C29.9104 22.752 30.3724 22.6273 30.7097 22.378C31.0471 22.114 31.2157 21.7473 31.2157 21.278C31.2157 20.794 31.0177 20.4127 30.6217 20.134C30.2404 19.8553 29.6024 19.716 28.7077 19.716C27.9744 19.716 27.2997 19.8113 26.6837 20.002C26.0677 20.178 25.4811 20.4493 24.9237 20.816L24.2857 19.342C25.5177 18.4913 27.1017 18.066 29.0377 18.066C30.4311 18.066 31.4797 18.3373 32.1837 18.88C32.9024 19.408 33.2617 20.1413 33.2617 21.08C33.2617 21.6373 33.1077 22.1287 32.7997 22.554C32.4917 22.9647 32.0664 23.2653 31.5237 23.456C32.1837 23.6027 32.7044 23.9033 33.0857 24.358C33.4671 24.798 33.6577 25.348 33.6577 26.008C33.6577 26.9907 33.2471 27.768 32.4257 28.34C31.6044 28.912 30.4091 29.198 28.8397 29.198Z" fill="white"/>
</svg>
