<svg width="64" height="64" viewBox="0 0 64 64" fill="none" xmlns="http://www.w3.org/2000/svg">
<path d="M32 4C26.1674 4.00688 20.5756 6.32694 16.4513 10.4513C12.327 14.5756 10.0069 20.1673 10 26C9.99304 30.7664 11.55 35.4036 14.432 39.2C14.432 39.2 15.032 39.99 15.13 40.104L32 60L48.878 40.094C48.966 39.988 49.568 39.2 49.568 39.2L49.57 39.194C52.4506 35.3992 54.0069 30.7643 54 26C53.9931 20.1673 51.6731 14.5756 47.5488 10.4513C43.4245 6.32694 37.8327 4.00688 32 4ZM32 34C30.4178 34 28.8711 33.5308 27.5555 32.6518C26.2399 31.7727 25.2145 30.5233 24.609 29.0615C24.0035 27.5997 23.8451 25.9911 24.1537 24.4393C24.4624 22.8874 25.2243 21.462 26.3432 20.3431C27.462 19.2243 28.8875 18.4624 30.4393 18.1537C31.9911 17.845 33.5997 18.0035 35.0615 18.609C36.5233 19.2145 37.7727 20.2398 38.6518 21.5554C39.5308 22.871 40 24.4177 40 26C39.9974 28.1209 39.1537 30.1542 37.654 31.6539C36.1542 33.1536 34.1209 33.9974 32 34Z" fill="#00A0A8"/>
</svg>
