<svg width="64" height="64" viewBox="0 0 64 64" fill="none" xmlns="http://www.w3.org/2000/svg">
<path d="M10.6667 53.3332C9.20004 53.3332 7.94493 52.8114 6.90137 51.7678C5.85782 50.7243 5.33515 49.4683 5.33337 47.9998V15.9998C5.33337 14.5332 5.85604 13.2781 6.90137 12.2345C7.94671 11.1909 9.20182 10.6683 10.6667 10.6665H53.3334C54.8 10.6665 56.056 11.1892 57.1014 12.2345C58.1467 13.2798 58.6685 14.5349 58.6667 15.9998V47.9998C58.6667 49.4665 58.1449 50.7225 57.1014 51.7678C56.0578 52.8132 54.8018 53.3349 53.3334 53.3332H10.6667ZM32 34.6665L53.3334 21.3332V15.9998L32 29.3332L10.6667 15.9998V21.3332L32 34.6665Z" fill="#00A0A8"/>
</svg>
