<svg width="44" height="44" viewBox="0 0 44 44" fill="none" xmlns="http://www.w3.org/2000/svg">
<rect x="0.5" y="0.5" width="43" height="43" rx="21.5" stroke="white"/>
<path fill-rule="evenodd" clip-rule="evenodd" d="M30.644 32.3867V32.384L30.668 32.3267L34.6667 12.1667V12.1027C34.6667 11.6 34.48 11.1613 34.0774 10.8987C33.724 10.668 33.3174 10.652 33.032 10.6733C32.7664 10.6973 32.5044 10.751 32.2507 10.8333C32.1425 10.8682 32.0358 10.9073 31.9307 10.9507L31.9134 10.9573L9.62004 19.7027L9.61338 19.7053C9.5456 19.7285 9.47926 19.7556 9.41471 19.7867C9.25616 19.8579 9.10404 19.9426 8.96004 20.04C8.67338 20.2373 8.12804 20.7013 8.22004 21.4373C8.29604 22.048 8.71604 22.4347 9.00004 22.636C9.16768 22.7535 9.3479 22.8518 9.53738 22.9293L9.58004 22.948L9.59338 22.952L9.60271 22.956L13.504 24.2693C13.4907 24.5133 13.5147 24.7627 13.58 25.0093L15.5334 32.4213C15.6401 32.8253 15.8707 33.1858 16.1927 33.4521C16.5148 33.7183 16.9122 33.877 17.3291 33.9058C17.746 33.9347 18.1614 33.8322 18.5171 33.6128C18.8727 33.3934 19.1507 33.0681 19.312 32.6827L22.3627 29.4213L27.6014 33.4373L27.676 33.4693C28.152 33.6773 28.596 33.7427 29.0027 33.688C29.4094 33.632 29.732 33.4613 29.9747 33.268C30.2554 33.0404 30.4791 32.7505 30.628 32.4213L30.6387 32.3987L30.6427 32.3907L30.644 32.3867ZM15.5134 24.5C15.4917 24.4177 15.4969 24.3307 15.5281 24.2516C15.5592 24.1725 15.6148 24.1054 15.6867 24.06L28.9147 15.66C28.9147 15.66 29.6934 15.1867 29.6654 15.66C29.6654 15.66 29.804 15.7427 29.3867 16.1307C28.992 16.5 19.9587 25.2213 19.044 26.104C18.9932 26.1534 18.9576 26.2163 18.9414 26.2853L17.4667 31.912L15.5134 24.5Z" fill="white"/>
</svg>
