<svg width="64" height="64" viewBox="0 0 64 64" fill="none" xmlns="http://www.w3.org/2000/svg">
<path d="M38.55 9.61252C38.6008 9.42204 38.6886 9.24344 38.8085 9.08693C38.9284 8.93042 39.0779 8.79907 39.2485 8.70039C39.4192 8.60171 39.6076 8.53764 39.8031 8.51184C39.9985 8.48604 40.1971 8.49901 40.3875 8.55002C44.0105 9.49507 47.316 11.3889 49.9636 14.0365C52.6111 16.684 54.505 19.9895 55.45 23.6125C55.501 23.8029 55.514 24.0015 55.4882 24.197C55.4624 24.3924 55.3983 24.5808 55.2997 24.7515C55.201 24.9222 55.0696 25.0717 54.9131 25.1915C54.7566 25.3114 54.578 25.3992 54.3875 25.45C54.2611 25.4837 54.1308 25.5005 54 25.5C53.6695 25.5002 53.3482 25.3913 53.086 25.1901C52.8238 24.9889 52.6354 24.7068 52.55 24.3875C51.7387 21.2755 50.1121 18.4361 47.838 16.162C45.5639 13.8879 42.7246 12.2614 39.6125 11.45C39.422 11.3992 39.2434 11.3114 39.0869 11.1915C38.9304 11.0717 38.7991 10.9222 38.7004 10.7515C38.6017 10.5808 38.5376 10.3924 38.5118 10.197C38.486 10.0015 38.499 9.80294 38.55 9.61252ZM37.6125 19.45C41.25 20.42 43.58 22.75 44.55 26.3875C44.6354 26.7068 44.8238 26.9889 45.086 27.1901C45.3482 27.3913 45.6695 27.5002 46 27.5C46.1308 27.5005 46.2611 27.4837 46.3875 27.45C46.578 27.3992 46.7566 27.3114 46.9131 27.1915C47.0696 27.0717 47.201 26.9222 47.2997 26.7515C47.3983 26.5808 47.4624 26.3924 47.4882 26.197C47.514 26.0015 47.501 25.8029 47.45 25.6125C46.2 20.935 43.065 17.8 38.3875 16.55C38.1971 16.4991 37.9985 16.4862 37.8031 16.5121C37.6077 16.538 37.4194 16.602 37.2487 16.7007C36.9041 16.9 36.6528 17.228 36.55 17.6125C36.4473 17.9971 36.5015 18.4067 36.7007 18.7513C36.9 19.0959 37.228 19.3472 37.6125 19.45ZM57.4725 43.7C57.0442 46.9681 55.4404 49.9684 52.961 52.14C50.4815 54.3117 47.2961 55.5061 44 55.5C24.425 55.5 8.50002 39.575 8.50002 20C8.49371 16.7051 9.68707 13.5206 11.8572 11.0413C14.0273 8.56202 17.0258 6.95752 20.2925 6.52752C21.0445 6.43613 21.8059 6.59119 22.4622 6.96941C23.1186 7.34762 23.6345 7.92858 23.9325 8.62502L29.2075 20.4C29.4404 20.9331 29.5368 21.5158 29.4879 22.0955C29.439 22.6751 29.2464 23.2335 28.9275 23.72C28.8954 23.7695 28.8603 23.8171 28.8225 23.8625L23.555 30.1275C23.523 30.1925 23.5064 30.2639 23.5064 30.3363C23.5064 30.4087 23.523 30.4801 23.555 30.545C25.47 34.465 29.58 38.545 33.555 40.4575C33.6214 40.4878 33.6939 40.5022 33.7668 40.4996C33.8397 40.497 33.911 40.4774 33.975 40.4425L40.1475 35.1925C40.1916 35.1542 40.2384 35.1191 40.2875 35.0875C40.7719 34.7646 41.3292 34.5676 41.9089 34.5143C42.4886 34.4611 43.0724 34.5532 43.6075 34.7825L55.4175 40.075C56.1047 40.3796 56.6756 40.8973 57.0457 41.5515C57.4158 42.2057 57.5654 42.9616 57.4725 43.7075V43.7ZM54.5 43.33C54.5084 43.2255 54.4837 43.121 54.4294 43.0312C54.3751 42.9415 54.294 42.8711 54.1975 42.83L42.385 37.5375C42.3205 37.5126 42.2513 37.502 42.1823 37.5063C42.1133 37.5106 42.046 37.5298 41.985 37.5625L35.815 42.8125C35.77 42.85 35.7225 42.885 35.675 42.9175C35.1717 43.2531 34.5901 43.4526 33.9867 43.4964C33.3834 43.5402 32.779 43.4269 32.2325 43.1675C27.6425 40.95 23.0675 36.4175 20.85 31.87C20.5892 31.3267 20.4731 30.7252 20.513 30.1239C20.5528 29.5225 20.7473 28.9417 21.0775 28.4375C21.1097 28.3874 21.1457 28.3397 21.185 28.295L26.45 22.03C26.4801 21.9645 26.4957 21.8933 26.4957 21.8213C26.4957 21.7492 26.4801 21.678 26.45 21.6125L21.185 9.82752C21.1503 9.73294 21.0878 9.65106 21.0057 9.59262C20.9236 9.53418 20.8258 9.5019 20.725 9.50002H20.6675C18.1249 9.83825 15.7923 11.0904 14.1053 13.0226C12.4183 14.9548 11.4922 17.435 11.5 20C11.5 37.92 26.08 52.5 44 52.5C46.5654 52.5078 49.0459 51.5814 50.9782 49.8938C52.9105 48.2063 54.1624 45.8731 54.5 43.33Z" fill="#00A0A8"/>
</svg>
