<svg width="25" height="24" viewBox="0 0 25 24" fill="none" xmlns="http://www.w3.org/2000/svg">
<path d="M23.5975 16.7662L17.695 14.125C17.4662 14.026 17.2163 13.9855 16.9679 14.0074C16.7196 14.0292 16.4806 14.1126 16.2725 14.25C16.2559 14.2605 16.24 14.2722 16.225 14.285L13.125 16.9275C13.056 16.9696 12.9777 16.994 12.8971 16.9986C12.8164 17.0031 12.7358 16.9877 12.6625 16.9537C10.6325 15.9737 8.53127 13.8887 7.55127 11.8825C7.5166 11.8097 7.50051 11.7295 7.50443 11.649C7.50836 11.5685 7.53218 11.4903 7.57376 11.4212L10.2238 8.26999C10.2363 8.25499 10.2475 8.23874 10.2588 8.22249C10.3958 8.01474 10.4789 7.77618 10.5007 7.52829C10.5225 7.2804 10.4824 7.03098 10.3838 6.80249L7.73751 0.90999C7.60976 0.611548 7.38864 0.362606 7.10735 0.200548C6.82605 0.038489 6.49978 -0.0279385 6.17751 0.0112404C4.60448 0.21864 3.16073 0.991569 2.11593 2.18566C1.07112 3.37975 0.496725 4.91334 0.500014 6.49999C0.500014 16.15 8.35001 24 18 24C19.5867 24.0033 21.1203 23.4289 22.3143 22.3841C23.5084 21.3393 24.2814 19.8955 24.4888 18.3225C24.5277 18.0017 24.4619 17.6769 24.3013 17.3965C24.1407 17.1161 23.8939 16.895 23.5975 16.7662ZM23.5 18.1975C23.3235 19.5297 22.6678 20.752 21.6556 21.6358C20.6433 22.5197 19.3438 23.0046 18 23C8.90251 23 1.50001 15.5975 1.50001 6.49999C1.49536 5.15617 1.9803 3.85666 2.86417 2.84442C3.74804 1.83218 4.97033 1.17651 6.30251 0.99999C6.3225 0.998789 6.34253 0.998789 6.36251 0.99999C6.46116 1.00083 6.55734 1.03083 6.63898 1.08622C6.72061 1.1416 6.78403 1.21989 6.82126 1.31124L9.46002 7.20374C9.4908 7.27576 9.50424 7.354 9.49925 7.43217C9.49426 7.51033 9.47097 7.58623 9.43126 7.65374L6.78252 10.8037C6.77001 10.82 6.75751 10.835 6.74626 10.8525C6.60515 11.0683 6.52204 11.3168 6.50496 11.5741C6.48789 11.8314 6.53741 12.0887 6.64877 12.3212C7.73501 14.545 9.97501 16.7687 12.2238 17.855C12.4579 17.9656 12.7167 18.0138 12.975 17.9947C13.2332 17.9756 13.4821 17.89 13.6975 17.7462L13.7438 17.7112L16.8475 15.0712C16.9139 15.0307 16.989 15.0065 17.0666 15.0006C17.1442 14.9947 17.222 15.0074 17.2938 15.0375L23.195 17.6825C23.2946 17.7239 23.3781 17.7965 23.4331 17.8893C23.4881 17.9821 23.5115 18.0902 23.5 18.1975Z" fill="white"/>
</svg>
