<svg width="50" height="50" viewBox="0 0 50 50" fill="none" xmlns="http://www.w3.org/2000/svg">
<rect width="50" height="50" rx="25" fill="#00A0A8"/>
<path d="M15.7929 34.2071C16.0858 34.5 16.5572 34.5 17.5 34.5H27.5C28.4428 34.5 28.9142 34.5 29.2071 34.2071M15.7929 34.2071C15.5 33.9142 15.5 33.4428 15.5 32.5V22.5C15.5 21.5572 15.5 21.0858 15.7929 20.7929M15.7929 34.2071L21.7929 28.2071M29.2071 34.2071C29.5 33.9142 29.5 33.4428 29.5 32.5V22.5C29.5 21.5572 29.5 21.0858 29.2071 20.7929M29.2071 34.2071L34.2071 29.2071C34.5 28.9142 34.5 28.4428 34.5 27.5V17.5C34.5 16.5572 34.5 16.0858 34.2071 15.7929M29.2071 20.7929C28.9142 20.5 28.4428 20.5 27.5 20.5H17.5C16.5572 20.5 16.0858 20.5 15.7929 20.7929M29.2071 20.7929L34.2071 15.7929M15.7929 20.7929L20.7929 15.7929C21.0858 15.5 21.5572 15.5 22.5 15.5H32.5C33.4428 15.5 33.9142 15.5 34.2071 15.7929M21.7929 28.2071C22.0858 28.5 22.5572 28.5 23.5 28.5H27M21.7929 28.2071C21.5 27.9142 21.5 27.4428 21.5 26.5V23.5" stroke="white" stroke-width="1.5" stroke-linecap="round" stroke-linejoin="round"/>
</svg>
